<?xml version="1.0" encoding="UTF-8" standalone="no"?>
<!-- Created with Inkscape (http://www.inkscape.org/) -->

<svg
   xmlns:dc="http://purl.org/dc/elements/1.1/"
   xmlns:cc="http://creativecommons.org/ns#"
   xmlns:rdf="http://www.w3.org/1999/02/22-rdf-syntax-ns#"
   xmlns:svg="http://www.w3.org/2000/svg"
   xmlns="http://www.w3.org/2000/svg"
   xmlns:sodipodi="http://sodipodi.sourceforge.net/DTD/sodipodi-0.dtd"
   xmlns:inkscape="http://www.inkscape.org/namespaces/inkscape"
   id="svg2643"
   height="48"
   width="140"
   version="1.0"
   inkscape:version="0.48.2 r9819"
   sodipodi:docname="mute.svg">
  <sodipodi:namedview
     pagecolor="#ffffff"
     bordercolor="#666666"
     borderopacity="1"
     objecttolerance="10"
     gridtolerance="10"
     guidetolerance="10"
     inkscape:pageopacity="0"
     inkscape:pageshadow="2"
     inkscape:window-width="1250"
     inkscape:window-height="808"
     id="namedview20"
     showgrid="false"
     inkscape:zoom="4.9166667"
     inkscape:cx="1.1138895"
     inkscape:cy="24"
     inkscape:window-x="0"
     inkscape:window-y="0"
     inkscape:window-maximized="0"
     inkscape:current-layer="svg2643" />
  <defs
     id="defs2645">
    <radialGradient
       id="radialGradient7260"
       gradientUnits="userSpaceOnUse"
       cy="21.099001"
       cx="22.275999"
       gradientTransform="matrix(-1.0538,-6.3027e-8,1.2877e-8,-0.72327,47.517,40.379)"
       r="20.319">
      <stop
         id="stop4391"
         style="stop-color:#555753"
         offset="0" />
      <stop
         id="stop4393"
         style="stop-color:#eeeeec"
         offset="1" />
    </radialGradient>
  </defs>
  <metadata
     id="metadata2648">
    <rdf:RDF>
      <cc:Work
         rdf:about="">
        <dc:format>image/svg+xml</dc:format>
        <dc:type
           rdf:resource="http://purl.org/dc/dcmitype/StillImage" />
        <cc:license
           rdf:resource="" />
        <dc:subject>
          <rdf:Bag>
            <rdf:li>audio</rdf:li>
            <rdf:li>device</rdf:li>
            <rdf:li>speaker</rdf:li>
            <rdf:li>output</rdf:li>
            <rdf:li>left-side</rdf:li>
          </rdf:Bag>
        </dc:subject>
        <dc:title />
        <dc:creator>
          <cc:Agent>
            <dc:title>Evangeline McGlynn</dc:title>
          </cc:Agent>
        </dc:creator>
      </cc:Work>
    </rdf:RDF>
  </metadata>
  <g
     id="layer1">
    <g
       id="g7248"
       transform="matrix(0,-1,1,0,0.041631,48.042)">
      <path
         id="path5365"
         style="fill:#babdb6;stroke:#2e3436"
         d="m 14.033,10.506 c 6.071,-3.4817 13.143,-3.3924 19.393,0 l 2,4.393 H 12.033 l 2,-4.393 z"
         inkscape:connector-curvature="0" />
      <path
         id="path5367"
         style="fill:#babdb6;fill-rule:evenodd"
         d="m 45.604,27.935 c 0,0 -4.547,-8.687 -9.861,-12.939 -0.211,-0.169 -0.423,-0.33 -0.635,-0.484 -0.502,-0.363 -1.01,-0.683 -1.52,-0.948 -0.569,-0.296 -1.14,-0.525 -1.711,-0.672 -3.883,-1.02 -11.716,-1.063 -15.589,-0.046 -0.84,0.219 -1.682,0.611 -2.512,1.132 -0.626,0.391 -1.245,0.855 -1.851,1.372 -1.872,1.593 -3.6288,3.688 -5.1082,5.71 -2.5966,3.549 -4.3377,6.875 -4.3377,6.875"
         inkscape:connector-curvature="0" />
      <path
         id="path5369"
         style="fill:none;stroke:#888a83"
         d="m 12.534,15.979 2.188,-4.766 c 5.261,-2.7433 11.22,-3.3671 17.939,-0.006 l 1.968,4.204"
         inkscape:connector-curvature="0" />
      <path
         id="path5371"
         style="fill:#555753;fill-rule:evenodd;stroke:#888a85;stroke-width:1px"
         d="m 44.709,28.524 c 0,0 -6.308,-12.929 -13.071,-14.668 C 27.755,12.836 20.453,12.793 16.58,13.81 9.7354,15.595 4.74,26.274 4.74,26.274"
         inkscape:connector-curvature="0" />
      <path
         id="path5373"
         style="fill:#eeeeec;stroke:#2e3436;stroke-width:0.68646002"
         d="m 43.214,32.241 a 20.938,4.9554 0 1 1 -41.875,0 20.938,4.9554 0 1 1 41.875,0 z"
         transform="matrix(1.0469,0,0,2.027,0.71988,-35.41)"
         inkscape:connector-curvature="0" />
      <path
         id="path5375"
         style="fill:url(#radialGradient7260);stroke:#ffffff"
         d="m 44.951,29.944 c 0.19,4.408 -8.81,9.066 -20.909,9.066 -12.1,0 -21.131,-4.595 -20.91,-9.066 -0.1893,-4.566 8.81,-9.035 20.91,-9.035 12.099,0 20.941,4.374 20.909,9.035 z"
         inkscape:connector-curvature="0" />
      <path
         id="path5377"
         style="fill:none;stroke:#555753"
         d="m 31.849,27.944 c -0.674,2.188 -3.289,3.385 -7.807,3.385 -4.519,0 -7.349,-1.377 -7.808,-3.385 -0.071,-1.705 3.289,-3.374 7.808,-3.374 4.518,0 7.819,1.634 7.807,3.374 z"
         inkscape:connector-curvature="0" />
      <path
         id="path5379"
         style="fill:#555753;stroke:#2e3436;stroke-width:0.96596003;stroke-linejoin:round"
         d="m 17.184,27.765 c 0.97,3.079 3.669,5.296 6.843,5.296 3.195,0 5.907,-2.245 6.862,-5.354 -0.901,-1.5 -4.281,-2.236 -6.891,-2.193 -3.304,-0.086 -5.856,0.859 -6.814,2.251 z"
         inkscape:connector-curvature="0" />
      <path
         id="path5381"
         style="fill:none;stroke:#2e3436;stroke-width:1px"
         d="m 12.429,14.847 c -0.127,0.103 -0.378,0.396 -0.504,0.503 -1.872,1.593 -3.6288,3.688 -5.1082,5.71 -2.5966,3.549 -4.3377,6.875 -4.3377,6.875 m 43.125,0 c 0,0 -4.547,-8.687 -9.861,-12.939 -0.211,-0.169 -0.423,-0.33 -0.635,-0.484 -0.101,-0.073 -0.649,-0.293 -0.75,-0.362"
         inkscape:connector-curvature="0" />
      <path
         id="path5383"
         style="fill:none;stroke:#888a85;stroke-width:1px"
         d="M 31.638,13.856 C 27.755,12.836 20.453,12.793 16.58,13.81"
         inkscape:connector-curvature="0" />
    </g>
  </g>
  <text
     xml:space="preserve"
     style="font-size:30px;font-style:normal;font-weight:normal;line-height:125%;letter-spacing:0px;word-spacing:0px;fill:#970000;fill-opacity:1;stroke:none;font-family:Sans"
     x="46.576267"
     y="30.305084"
     id="text2997"
     sodipodi:linespacing="125%"><tspan
       sodipodi:role="line"
       id="tspan2999"
       x="60"
       y="35">Mute</tspan></text>
  <path
     style="fill:none;stroke:#970000;stroke-width:1px;stroke-linecap:butt;stroke-linejoin:miter;stroke-opacity:1"
     d="M 2.2372881,2.440678 45.355932,45.559322"
     id="path3773"
     inkscape:connector-curvature="0" />
  <path
     inkscape:connector-curvature="0"
     id="path3775"
     d="M 2.1109785,45.432268 45.482242,2.567732"
     style="fill:none;stroke:#970000;stroke-width:1px;stroke-linecap:butt;stroke-linejoin:miter;stroke-opacity:1" />
</svg>
